<svg version="1.1" xmlns="http://www.w3.org/2000/svg" viewBox="-1.000001 -41.000001 762.000002 52.89795429066987" fill="none" stroke="black" stroke-width="0.6%" vector-effect="non-scaling-stroke">
    <path d="M 0 0 C 15.56 10.9 22.44 10.9 38 0 C 53.56 -10.9 60.44 -10.9 76 0 C 91.56 10.9 98.44 10.9 114 0 C 129.56 -10.9 136.44 -10.9 152 0 C 167.56 10.9 174.44 10.9 190 0 C 205.56 -10.9 212.44 -10.9 228 0 C 243.56 10.9 250.44 10.9 266 0 C 281.56 -10.9 288.44 -10.9 304 0 C 319.56 10.9 326.44 10.9 342 0 C 357.56 -10.9 364.44 -10.9 380 0 C 395.56 10.9 402.44 10.9 418 0 C 433.56 -10.9 440.44 -10.9 456 0 C 471.56 10.9 478.44 10.9 494 0 C 509.56 -10.9 516.44 -10.9 532 0 C 547.56 10.9 554.44 10.9 570 0 C 585.56 -10.9 592.44 -10.9 608 0 C 623.56 10.9 630.44 10.9 646 0 C 661.56 -10.9 668.44 -10.9 684 0 C 699.56 10.9 706.44 10.9 722 0 C 737.56 -10.9 744.44 -10.9 760 0 L 760 -40 L 0 -40 L 0 0 C 15.56 10.9 22.44 10.9 38 0 C 53.56 -10.9 60.44 -10.9 76 0 C 91.56 10.9 98.44 10.9 114 0 C 129.56 -10.9 136.44 -10.9 152 0 C 167.56 10.9 174.44 10.9 190 0 C 205.56 -10.9 212.44 -10.9 228 0 C 243.56 10.9 250.44 10.9 266 0 C 281.56 -10.9 288.44 -10.9 304 0 C 319.56 10.9 326.44 10.9 342 0 C 357.56 -10.9 364.44 -10.9 380 0 C 395.56 10.9 402.44 10.9 418 0 C 433.56 -10.9 440.44 -10.9 456 0 C 471.56 10.9 478.44 10.9 494 0 C 509.56 -10.9 516.44 -10.9 532 0 C 547.56 10.9 554.44 10.9 570 0 C 585.56 -10.9 592.44 -10.9 608 0 C 623.56 10.9 630.44 10.9 646 0 C 661.56 -10.9 668.44 -10.9 684 0 C 699.56 10.9 706.44 10.9 722 0 C 737.56 -10.9 744.44 -10.9 760 0" />
</svg>