<svg version="1.1" xmlns="http://www.w3.org/2000/svg" viewBox="-1.000001 -41.000001 762.000002 54.212966584044246" fill="none" stroke="black" stroke-width="0.6%" vector-effect="non-scaling-stroke">
    <path d="M 0 0 C 14.55 12.21 23.45 12.21 38 0 C 52.55 -12.21 61.45 -12.21 76 0 C 90.55 12.21 99.45 12.21 114 0 C 128.55 -12.21 137.45 -12.21 152 0 C 166.55 12.21 175.45 12.21 190 0 C 204.55 -12.21 213.45 -12.21 228 0 C 242.55 12.21 251.45 12.21 266 0 C 280.55 -12.21 289.45 -12.21 304 0 C 318.55 12.21 327.45 12.21 342 0 C 356.55 -12.21 365.45 -12.21 380 0 C 394.55 12.21 403.45 12.21 418 0 C 432.55 -12.21 441.45 -12.21 456 0 C 470.55 12.21 479.45 12.21 494 0 C 508.55 -12.21 517.45 -12.21 532 0 C 546.55 12.21 555.45 12.21 570 0 C 584.55 -12.21 593.45 -12.21 608 0 C 622.55 12.21 631.45 12.21 646 0 C 660.55 -12.21 669.45 -12.21 684 0 C 698.55 12.21 707.45 12.21 722 0 C 736.55 -12.21 745.45 -12.21 760 0 L 760 -40 L 0 -40 L 0 0 C 14.55 12.21 23.45 12.21 38 0 C 52.55 -12.21 61.45 -12.21 76 0 C 90.55 12.21 99.45 12.21 114 0 C 128.55 -12.21 137.45 -12.21 152 0 C 166.55 12.21 175.45 12.21 190 0 C 204.55 -12.21 213.45 -12.21 228 0 C 242.55 12.21 251.45 12.21 266 0 C 280.55 -12.21 289.45 -12.21 304 0 C 318.55 12.21 327.45 12.21 342 0 C 356.55 -12.21 365.45 -12.21 380 0 C 394.55 12.21 403.45 12.21 418 0 C 432.55 -12.21 441.45 -12.21 456 0 C 470.55 12.21 479.45 12.21 494 0 C 508.55 -12.21 517.45 -12.21 532 0 C 546.55 12.21 555.45 12.21 570 0 C 584.55 -12.21 593.45 -12.21 608 0 C 622.55 12.21 631.45 12.21 646 0 C 660.55 -12.21 669.45 -12.21 684 0 C 698.55 12.21 707.45 12.21 722 0 C 736.55 -12.21 745.45 -12.21 760 0" />
</svg>