<svg version="1.1" xmlns="http://www.w3.org/2000/svg" viewBox="-1.000001 -41.000001 382.000002 55.4350308425444" fill="none" stroke="black" stroke-width="0.6%" vector-effect="non-scaling-stroke">
    <path d="M 0 0 C 13.44 13.44 24.56 13.44 38 0 C 51.44 -13.44 62.56 -13.44 76 0 C 89.44 13.44 100.56 13.44 114 0 C 127.44 -13.44 138.56 -13.44 152 0 C 165.44 13.44 176.56 13.44 190 0 C 203.44 -13.44 214.56 -13.44 228 0 C 241.44 13.44 252.56 13.44 266 0 C 279.44 -13.44 290.56 -13.44 304 0 C 317.44 13.44 328.56 13.44 342 0 C 355.44 -13.44 366.56 -13.44 380 0 L 380 -40 L 0 -40 L 0 0 C 13.44 13.44 24.56 13.44 38 0 C 51.44 -13.44 62.56 -13.44 76 0 C 89.44 13.44 100.56 13.44 114 0 C 127.44 -13.44 138.56 -13.44 152 0 C 165.44 13.44 176.56 13.44 190 0 C 203.44 -13.44 214.56 -13.44 228 0 C 241.44 13.44 252.56 13.44 266 0 C 279.44 -13.44 290.56 -13.44 304 0 C 317.44 13.44 328.56 13.44 342 0 C 355.44 -13.44 366.56 -13.44 380 0" />
</svg>