<svg version="1.1" xmlns="http://www.w3.org/2000/svg" viewBox="-1.000001 -41.000001 722.000002 54.727924061357854" fill="none" stroke="black" stroke-width="0.6%" vector-effect="non-scaling-stroke">
    <path d="M 0 0 C 12.73 12.73 23.27 12.73 36 0 C 48.73 -12.73 59.27 -12.73 72 0 C 84.73 12.73 95.27 12.73 108 0 C 120.73 -12.73 131.27 -12.73 144 0 C 156.73 12.73 167.27 12.73 180 0 C 192.73 -12.73 203.27 -12.73 216 0 C 228.73 12.73 239.27 12.73 252 0 C 264.73 -12.73 275.27 -12.73 288 0 C 300.73 12.73 311.27 12.73 324 0 C 336.73 -12.73 347.27 -12.73 360 0 C 372.73 12.73 383.27 12.73 396 0 C 408.73 -12.73 419.27 -12.73 432 0 C 444.73 12.73 455.27 12.73 468 0 C 480.73 -12.73 491.27 -12.73 504 0 C 516.73 12.73 527.27 12.73 540 0 C 552.73 -12.73 563.27 -12.73 576 0 C 588.73 12.73 599.27 12.73 612 0 C 624.73 -12.73 635.27 -12.73 648 0 C 660.73 12.73 671.27 12.73 684 0 C 696.73 -12.73 707.27 -12.73 720 0 L 720 -40 L 0 -40 L 0 0 C 12.73 12.73 23.27 12.73 36 0 C 48.73 -12.73 59.27 -12.73 72 0 C 84.73 12.73 95.27 12.73 108 0 C 120.73 -12.73 131.27 -12.73 144 0 C 156.73 12.73 167.27 12.73 180 0 C 192.73 -12.73 203.27 -12.73 216 0 C 228.73 12.73 239.27 12.73 252 0 C 264.73 -12.73 275.27 -12.73 288 0 C 300.73 12.73 311.27 12.73 324 0 C 336.73 -12.73 347.27 -12.73 360 0 C 372.73 12.73 383.27 12.73 396 0 C 408.73 -12.73 419.27 -12.73 432 0 C 444.73 12.73 455.27 12.73 468 0 C 480.73 -12.73 491.27 -12.73 504 0 C 516.73 12.73 527.27 12.73 540 0 C 552.73 -12.73 563.27 -12.73 576 0 C 588.73 12.73 599.27 12.73 612 0 C 624.73 -12.73 635.27 -12.73 648 0 C 660.73 12.73 671.27 12.73 684 0 C 696.73 -12.73 707.27 -12.73 720 0" />
</svg>